<?xml version="1.0"?>
<svg xmlns="http://www.w3.org/2000/svg" viewBox="0 0 64 64" width="256" height="256">
	<g class="question">
		<path d="M54,14a8,8,0,0,0-3.4,15.23h0a7.9,7.9,0,0,0,6.76,0h0A8,8,0,0,0,54,14Zm0,10a2,2,0,1,1,2-2A2,2,0,0,1,54,24Zm-2,3.65V27a1,1,0,0,1,1-1h2a1,1,0,0,1,1,1v.65a5.89,5.89,0,0,1-4,0Zm6-1.14a3,3,0,0,0-1-1.8,4,4,0,1,0-5.84,0,3,3,0,0,0-1,1.8,6,6,0,1,1,7.9,0Z" />
		<path d="M33,10a1,1,0,0,0,1-1,1,1,0,1,1,1,1,1,1,0,0,0-1,1v2a1,1,0,0,0,2,0V11.83A3,3,0,1,0,32,9,1,1,0,0,0,33,10Z" />
		<circle cx="35" cy="16" r="1" />
	</g>
	<g class="answer">
		<path d="M10,26A8,8,0,0,0,6.6,41.23h0a7.9,7.9,0,0,0,6.76,0h0A8,8,0,0,0,10,26Zm0,10a2,2,0,1,1,2-2A2,2,0,0,1,10,36ZM8,39.65V39a1,1,0,0,1,1-1h2a1,1,0,0,1,1,1v.65a5.89,5.89,0,0,1-4,0ZM14,38.51a3,3,0,0,0-1-1.8,4,4,0,1,0-5.84,0,3,3,0,0,0-1,1.8,6,6,0,1,1,7.9,0Z" />
		<path d="M21,22a1,1,0,0,0,1,1h6a1,1,0,0,0,0-2H22A1,1,0,0,0,21,22Z" />
		<circle cx="22" cy="18" r="1" />
		<circle cx="26" cy="18" r="1" />
		<path d="M23.59,13H20a3,3,0,0,0-3,3v8a3,3,0,0,0,3,3v5a1,1,0,0,0,.71,1A1,1,0,0,0,21,33a1,1,0,0,0,.83-.45L25.54,27H32a3,3,0,0,0,3-3V22.93a1,1,0,0,0-2,0V24a1,1,0,0,1-1,1H25a1,1,0,0,0-.83.45L22,28.7V26a1,1,0,0,0-1-1H20a1,1,0,0,1-1-1V16a1,1,0,0,1,1-1h3.59a1,1,0,1,0,0-2Z" />
	</g>
	<g class="computer">
		<path d="M61,29a1,1,0,0,0-1,1V43a1,1,0,0,1-1,1H52a1,1,0,0,0,0,2h7a3,3,0,0,0,3-3V30A1,1,0,0,0,61,29Z" />
		<path d="M22,44H5a1,1,0,0,1-1-1V42a1,1,0,0,0-2,0v1a3,3,0,0,0,3,3H22a1,1,0,0,0,0-2Z" />
		<path d="M59,2H5A3,3,0,0,0,2,5V26a1,1,0,0,0,2,0V5A1,1,0,0,1,5,4H29.36a9,9,0,0,0,7.36,15.83l5.71,4a1,1,0,0,0,1.18,0,1,1,0,0,0,.33-1.14l-2.15-5.74A9,9,0,0,0,40.64,4H59a1,1,0,0,1,1,1v9a1,1,0,0,0,2,0V5A3,3,0,0,0,59,2ZM42,11a7,7,0,0,1-2.07,5A1,1,0,0,0,39.69,17l1.24,3.3-3.42-2.39a1,1,0,0,0-.58-.19,1,1,0,0,0-.24,0A7,7,0,1,1,42,11Z" />
		<path d="M14,54h8a1,1,0,0,0,0-2H14a3,3,0,0,0-3,3v2a1,1,0,0,0,1,1H22a1,1,0,0,0,0-2H13V55A1,1,0,0,1,14,54Z" />
	</g>
	<g class="notif">
		<path d="M52,56H49V54h1a1,1,0,0,0,0-2H49V40h8a1,1,0,0,0,0-2H53V35a3,3,0,0,0-3-3H30a5,5,0,0,0-5,5v1H20a1,1,0,0,0,0,2h5V61a1,1,0,0,0,2,0V37a3,3,0,0,1,3-3H47.18A3,3,0,0,0,47,35V61a1,1,0,0,0,2,0V58h3a1,1,0,0,0,0-2ZM51,35v3H49V35a1,1,0,0,1,2,0Z" />
		<path d="M30,44h6a1,1,0,0,0,1-1V37a1,1,0,0,0-1-1H30a1,1,0,0,0-1,1v6A1,1,0,0,0,30,44Zm1-6h4v4H31Z" />
		<path d="M44,38H40a1,1,0,0,0,0,2h4a1,1,0,0,0,0-2Z" />
		<path d="M44,42H40a1,1,0,0,0,0,2h4a1,1,0,0,0,0-2Z" />
		<path d="M44,46H30a1,1,0,0,0,0,2H44a1,1,0,0,0,0-2Z" />
		<path d="M30,52h6a1,1,0,0,0,0-2H30a1,1,0,0,0,0,2Z" />
		<path d="M44,50H40a1,1,0,0,0,0,2h4a1,1,0,0,0,0-2Z" />
		<path d="M44,54H30a1,1,0,0,0,0,2H44a1,1,0,0,0,0-2Z" />
	</g>
</svg>
