<?xml version="1.0"?>
<svg xmlns="http://www.w3.org/2000/svg" viewBox="0 0 64 64" width="256" height="256">
	<g class="tower-analysis">
		<path d="M32.78,47.12a3,3,0,0,0-1-3.54,21.89,21.89,0,0,0,11-9A1,1,0,1,0,41,33.47a19.94,19.94,0,0,1-30,4.71A1,1,0,0,0,9.7,39.7a21.88,21.88,0,0,0,6.55,3.87,3,3,0,0,0-1,3.55A3,3,0,0,0,13,50v2a1,1,0,0,0,1,1H34a1,1,0,0,0,1-1V50A3,3,0,0,0,32.78,47.12ZM30,45a1,1,0,0,1,0,2H18a1,1,0,0,1,0-2Zm3,6H15V50a1,1,0,0,1,1-1H32a1,1,0,0,1,1,1Z" />
		<path d="M24,41a18,18,0,0,0,13.71-6.35,1,1,0,0,0-1.52-1.3,16.22,16.22,0,0,1-5.72,4.27L30.09,33a3,3,0,0,0,1.08-5.75l3.54-3.53A1,1,0,0,0,35,23V18a1,1,0,0,0-1-1H30a1,1,0,0,0-1,1v2H28a1,1,0,0,0,0,2h2a1,1,0,0,0,1-1V19h2v3.59L28.59,27H19.41L15,22.59V19h2v2a1,1,0,0,0,1,1h4a1,1,0,0,0,1-1V19h3a1,1,0,0,0,0-2H22a1,1,0,0,0-1,1v2H19V18a1,1,0,0,0-1-1H14a1,1,0,0,0-1,1v5a1,1,0,0,0,.29.71l3.54,3.53A3,3,0,0,0,17.91,33l-.38,4.62a16,16,0,0,1-4.37-2.87,1,1,0,0,0-1.36,1.47A18,18,0,0,0,24,41ZM17,30a1,1,0,0,1,1-1H30a1,1,0,0,1,0,2H18A1,1,0,0,1,17,30Zm2.92,3h8.16l.44,5.32a15.62,15.62,0,0,1-9,0Z" />
		<path d="M40.54,27a1,1,0,0,0,1.16-.8A18,18,0,1,0,6,23a18.18,18.18,0,0,0,.77,5.22,1,1,0,0,0,1,.71,1,1,0,0,0,.29,0,1,1,0,0,0,.67-1.25A16,16,0,1,1,40,23a16.71,16.71,0,0,1-.26,2.82A1,1,0,0,0,40.54,27Z" />
		<path d="M5.13,33.16a1,1,0,0,0,.43-.1A1,1,0,0,0,6,31.73,19.75,19.75,0,0,1,4,23a20,20,0,0,1,40,0,19.4,19.4,0,0,1-.23,2.86,1,1,0,1,0,2,.28A21.72,21.72,0,0,0,46,23,22,22,0,0,0,2,23a21.76,21.76,0,0,0,2.23,9.6A1,1,0,0,0,5.13,33.16Z" />
		<path d="M44.37,37.72A1,1,0,1,0,43,39.13L59.41,55.59a2,2,0,0,1,0,2.82,2,2,0,0,1-2.82,0L40.13,42a1,1,0,1,0-1.41,1.41L55.17,59.83a4,4,0,0,0,5.66-5.66Z" />
	</g>
	<g class="analysis1">
		<path d="M4,40V52a1,1,0,0,0,2,0V40.27L12.86,28.5a1,1,0,1,0-1.72-1l-7,12A1,1,0,0,0,4,40Z" />
		<path d="M11,55H3a1,1,0,0,0-1,1v4a1,1,0,0,0,1,1h8a1,1,0,0,0,1-1V56A1,1,0,0,0,11,55Zm-1,4H4V57h6Z" />
	</g>
	<g class="analysis2">
		<path d="M59,30V26a1,1,0,0,0-2,0v3H36a1,1,0,0,0,0,2H58A1,1,0,0,0,59,30Z" />
		<path d="M61,5H52V3h9a1,1,0,0,0,0-2H45a1,1,0,0,0-1,1V6a1,1,0,0,0,1,1H61a1,1,0,0,0,0-2ZM46,5V3h4V5Z" />
		<path d="M61,11a1,1,0,0,0,0-2H49a1,1,0,0,0-1,1v4a1,1,0,0,0,1,1H61a1,1,0,0,0,0-2H50V11Z" />
		<path d="M61,19a1,1,0,0,0,0-2H55a1,1,0,0,0-1,1v4a1,1,0,0,0,1,1h6a1,1,0,0,0,0-2H56V19Z" />
	</g>
	<g class="floating-data-tower">
		<path d="M19,10a1,1,0,0,0,0,2h4a1,1,0,0,0,0-2Z" />
		<path d="M26,13a1,1,0,0,0,0,2h4a1,1,0,0,0,0-2Z" />
	</g>
	<g class="floating-data-analysis">
		<path d="M27,55H17a1,1,0,0,0,0,2H27a1,1,0,0,0,0-2Z" />
		<path d="M22,59H17a1,1,0,0,0,0,2h5a1,1,0,0,0,0-2Z" />
	</g>
</svg>
